<?xml version="1.0" standalone="no"?>
<!DOCTYPE svg PUBLIC "-//W3C//DTD SVG 20010904//EN"
 "http://www.w3.org/TR/2001/REC-SVG-20010904/DTD/svg10.dtd">
<svg version="1.0" xmlns="http://www.w3.org/2000/svg"
 width="2583.000000pt" height="2513.000000pt" viewBox="0 0 2583.000000 2513.000000"
 preserveAspectRatio="xMidYMid meet">

<g transform="translate(0.000000,2513.000000) scale(0.100000,-0.100000)"
fill="#000000" stroke="none">
<path d="M12370 25119 c-1677 -69 -3273 -441 -4820 -1122 -227 -100 -796 -383
-1020 -508 -865 -481 -1662 -1051 -2410 -1723 -173 -156 -701 -680 -861 -856
-657 -722 -1235 -1524 -1701 -2360 -799 -1432 -1304 -3008 -1482 -4630 -304
-2753 319 -5496 1782 -7850 876 -1410 2049 -2658 3414 -3634 788 -563 1670
-1053 2563 -1426 2397 -999 5077 -1265 7655 -759 2066 406 4000 1304 5645
2623 661 531 1312 1172 1855 1830 1191 1443 2038 3120 2480 4911 479 1940 479
3960 0 5900 -492 1994 -1485 3842 -2899 5395 -160 176 -688 700 -861 856 -749
673 -1543 1241 -2410 1723 -224 125 -793 408 -1020 508 -1043 459 -2076 769
-3175 952 -882 147 -1844 207 -2735 170z m1285 -329 c867 -56 1580 -163 2362
-356 3597 -883 6637 -3300 8248 -6559 536 -1084 891 -2181 1084 -3355 114
-693 155 -1208 155 -1955 0 -507 -7 -686 -45 -1100 -215 -2359 -1139 -4618
-2648 -6475 -1307 -1609 -2983 -2861 -4916 -3675 -1218 -512 -2549 -837 -3890
-949 -402 -34 -573 -40 -1090 -40 -517 0 -688 6 -1090 40 -1970 164 -3852 771
-5540 1787 -2032 1222 -3685 3009 -4720 5102 -724 1463 -1117 2944 -1227 4620
-16 249 -16 1131 0 1380 62 947 207 1785 456 2645 443 1531 1209 2989 2225
4240 1997 2458 4866 4079 8021 4534 488 70 852 103 1440 130 147 7 1018 -3
1175 -14z"/>
<path d="M3907 20133 c-3 -10 -5 -44 -5 -76 0 -32 -6 -64 -12 -72 -7 -9 -8
-31 -2 -71 11 -69 6 -122 -15 -146 -8 -9 -13 -20 -10 -25 3 -4 8 -51 11 -103
4 -52 13 -180 21 -285 8 -104 17 -244 20 -310 8 -161 11 -189 23 -211 21 -41
32 -93 32 -150 0 -33 4 -64 8 -69 15 -17 35 -98 38 -152 2 -29 12 -80 24 -114
11 -34 20 -73 20 -86 0 -13 7 -37 14 -52 8 -15 18 -52 21 -82 4 -30 15 -66 26
-81 11 -16 19 -44 19 -67 0 -22 5 -43 10 -46 6 -3 10 -15 10 -27 0 -11 8 -37
19 -57 17 -34 23 -49 51 -131 7 -19 21 -53 31 -75 11 -22 19 -50 19 -63 0 -13
5 -33 12 -45 13 -24 40 -96 63 -168 8 -25 24 -54 35 -64 12 -11 19 -29 18 -45
-1 -14 8 -41 21 -59 13 -18 28 -51 33 -73 5 -23 20 -55 34 -71 18 -22 24 -37
19 -54 -4 -18 2 -33 23 -57 17 -19 32 -50 35 -74 4 -24 21 -56 42 -82 24 -29
35 -52 35 -74 0 -21 8 -40 21 -52 28 -25 49 -67 49 -98 0 -15 18 -46 49 -81
35 -39 52 -69 56 -97 4 -24 20 -55 39 -77 53 -61 58 -70 67 -117 7 -37 21 -59
69 -110 33 -36 62 -76 65 -89 3 -14 7 -36 10 -49 3 -14 28 -51 56 -83 29 -32
60 -77 70 -99 10 -23 25 -47 33 -53 7 -6 16 -25 20 -41 3 -17 23 -49 44 -72
55 -62 97 -118 117 -158 10 -19 26 -43 36 -53 11 -10 19 -29 19 -42 0 -16 34
-65 103 -146 56 -68 120 -146 142 -174 22 -28 76 -95 120 -149 44 -54 89 -112
100 -131 11 -18 34 -45 50 -61 34 -32 137 -156 353 -426 52 -65 100 -118 108
-118 22 0 144 -122 220 -222 55 -73 82 -99 108 -108 35 -11 70 -46 164 -164
30 -36 68 -72 85 -80 35 -14 78 -53 119 -108 15 -19 40 -39 55 -43 37 -9 55
-26 119 -112 37 -50 63 -75 81 -79 34 -8 64 -34 110 -96 25 -34 45 -51 74 -59
26 -8 51 -27 75 -55 19 -24 56 -54 82 -67 30 -15 62 -43 90 -79 28 -38 54 -60
77 -68 20 -7 49 -29 66 -50 17 -21 48 -46 69 -54 20 -8 52 -34 70 -56 19 -24
52 -50 75 -60 23 -10 56 -36 74 -58 19 -25 43 -43 61 -47 19 -4 45 -24 67 -51
26 -31 45 -44 63 -44 17 0 39 -14 65 -40 21 -22 45 -40 53 -40 8 0 36 -22 63
-50 31 -32 57 -50 72 -50 13 0 36 -14 53 -31 16 -17 47 -40 69 -50 22 -11 50
-35 63 -54 16 -25 29 -35 48 -35 17 0 37 -12 58 -35 20 -22 42 -35 57 -35 16
0 39 -14 63 -39 21 -21 50 -41 65 -44 20 -4 49 -32 99 -94 38 -48 106 -132
150 -186 45 -53 84 -107 88 -120 3 -12 24 -40 44 -63 21 -23 41 -56 45 -75 4
-18 25 -54 46 -79 281 -335 346 -416 366 -455 9 -16 42 -61 74 -98 37 -42 59
-77 59 -92 0 -16 45 -79 138 -190 75 -91 165 -200 200 -242 35 -42 73 -95 84
-117 11 -23 33 -51 49 -64 19 -15 33 -40 40 -68 9 -34 39 -77 122 -177 60 -73
129 -153 154 -180 l44 -47 1717 0 1717 0 55 67 c30 37 122 148 203 247 81 100
166 202 188 228 21 26 42 62 46 79 4 20 41 74 97 141 49 60 100 127 112 149
13 21 46 67 73 102 28 34 67 83 88 109 21 26 102 125 181 220 79 95 163 197
188 227 29 35 44 63 44 81 0 16 4 31 10 35 16 10 127 151 143 181 17 32 124
168 204 260 130 146 403 491 403 507 0 28 18 56 80 127 31 36 64 80 74 97 26
51 141 195 483 603 36 43 65 89 69 107 3 17 13 40 22 50 61 67 112 134 131
168 22 41 78 112 233 296 224 266 298 362 298 384 0 14 30 59 77 115 43 51 88
110 101 132 20 35 125 169 255 324 164 196 273 338 282 369 10 34 42 76 137
179 38 41 49 49 59 39 7 -7 22 -13 34 -13 11 0 44 -18 74 -40 37 -28 63 -40
86 -40 18 0 44 -9 58 -21 20 -15 35 -18 60 -14 24 5 37 2 47 -10 9 -11 22 -14
42 -10 21 5 35 2 48 -10 13 -12 23 -14 36 -7 19 11 92 4 110 -9 6 -5 36 -4 68
1 32 5 61 9 65 8 3 -1 22 2 41 5 19 4 73 9 119 12 55 3 91 11 101 20 9 8 23
15 30 15 14 0 80 28 132 56 14 8 32 14 40 14 8 0 25 11 38 25 19 20 30 24 52
20 23 -6 29 -2 37 18 12 32 58 67 87 67 16 0 40 22 86 78 57 70 240 290 426
510 40 48 117 141 170 206 53 66 109 132 124 148 43 46 271 319 303 363 16 22
47 60 70 85 22 25 103 121 180 214 77 93 155 185 174 205 18 20 88 103 155
185 66 82 139 171 161 197 22 26 109 130 193 231 84 101 172 205 195 233 50
59 275 329 405 484 50 61 92 117 92 123 0 14 -258 188 -277 188 -6 0 -23 -17
-39 -37 -16 -21 -74 -91 -129 -157 -55 -65 -125 -149 -155 -186 -30 -37 -134
-161 -230 -275 -96 -114 -186 -221 -200 -239 -50 -64 -175 -212 -226 -268 -28
-31 -113 -132 -189 -225 -156 -190 -217 -262 -375 -448 -60 -71 -145 -173
-187 -225 -42 -52 -102 -124 -133 -160 -100 -115 -368 -437 -385 -464 -12 -19
-26 -26 -48 -26 -17 0 -38 -6 -46 -14 -23 -20 -93 -26 -122 -11 -13 8 -35 11
-49 9 -18 -4 -43 8 -94 43 -74 52 -85 72 -104 183 -18 114 -20 109 133 294 77
93 194 233 260 310 66 78 165 195 220 260 55 66 141 167 190 226 50 59 171
203 270 320 99 118 207 246 240 286 109 132 417 498 500 594 44 52 136 160
204 240 68 80 147 173 177 208 30 35 54 67 54 71 0 10 -227 162 -250 168 -12
3 -59 -47 -161 -169 -79 -95 -210 -249 -290 -343 -80 -93 -188 -222 -240 -286
-52 -64 -151 -182 -222 -262 -70 -81 -155 -182 -190 -224 -34 -43 -129 -157
-212 -252 -162 -188 -177 -206 -457 -542 -103 -123 -219 -260 -258 -304 -38
-44 -100 -117 -137 -162 -37 -46 -75 -83 -84 -83 -10 0 -26 -11 -37 -25 -33
-41 -170 -76 -193 -49 -9 11 -23 13 -49 9 -28 -5 -40 -2 -51 11 -8 10 -38 32
-67 51 -44 29 -51 37 -46 57 4 17 0 27 -12 34 -13 7 -23 32 -30 74 -11 57 -10
66 7 94 10 17 16 33 13 37 -3 3 0 16 7 29 15 28 598 723 785 935 30 34 103
120 162 191 116 139 318 378 449 531 190 223 301 353 397 467 55 66 175 207
265 313 106 125 160 196 154 202 -6 6 -59 43 -119 84 -92 62 -112 72 -126 62
-9 -7 -110 -122 -224 -257 -114 -135 -235 -276 -269 -315 -34 -38 -131 -153
-216 -253 -85 -101 -203 -241 -262 -310 -60 -70 -165 -194 -234 -277 -69 -82
-144 -170 -167 -195 -23 -25 -100 -115 -171 -200 -71 -85 -197 -234 -280 -330
-83 -96 -208 -244 -279 -327 -95 -114 -133 -153 -150 -153 -12 0 -33 -11 -45
-24 -17 -18 -34 -24 -79 -26 -136 -7 -159 -2 -225 45 -86 62 -87 63 -80 81 4
11 -2 23 -17 34 -20 15 -23 26 -22 89 0 60 4 77 21 95 12 12 21 32 21 44 0 12
8 30 18 40 9 9 78 89 152 177 74 87 209 245 300 350 91 104 197 228 236 275
39 47 122 144 184 215 62 72 158 184 213 250 55 66 119 140 141 165 23 25 100
115 171 200 72 85 166 195 210 246 44 50 125 144 180 209 55 65 129 153 165
194 36 42 87 103 114 136 27 33 67 79 89 102 22 22 36 46 33 52 -9 14 -232
161 -245 161 -5 0 -50 -48 -100 -107 -49 -60 -135 -160 -191 -223 -55 -63
-178 -207 -273 -320 -94 -112 -178 -212 -187 -220 -24 -24 -244 -280 -378
-439 -180 -214 -262 -310 -308 -361 -52 -56 -140 -158 -269 -310 -55 -65 -199
-233 -320 -375 -121 -141 -233 -273 -250 -294 -16 -20 -70 -83 -120 -139 -49
-57 -121 -140 -158 -185 -37 -45 -88 -102 -112 -127 -36 -36 -45 -53 -45 -80
0 -26 -9 -45 -35 -75 -28 -30 -35 -45 -30 -64 4 -17 -1 -31 -20 -51 -22 -23
-25 -32 -17 -47 8 -14 6 -23 -10 -40 -15 -16 -18 -26 -10 -35 6 -9 7 -32 1
-68 -5 -30 -7 -73 -4 -95 3 -22 8 -58 11 -80 10 -75 13 -100 20 -177 6 -67 9
-77 31 -87 18 -8 22 -16 18 -34 -4 -15 -1 -28 9 -36 9 -8 16 -22 16 -32 0 -10
11 -26 25 -35 16 -11 25 -26 25 -43 0 -18 9 -34 29 -48 15 -12 31 -34 34 -50
4 -20 18 -35 44 -50 47 -27 123 -105 123 -127 0 -9 6 -16 14 -16 29 0 27 -20
-3 -38 -17 -9 -31 -23 -31 -30 0 -7 -31 -50 -68 -95 -37 -45 -77 -94 -87 -108
-44 -59 -149 -175 -175 -194 -15 -11 -50 -49 -78 -85 -29 -36 -69 -74 -89 -85
-24 -14 -95 -89 -196 -210 -86 -105 -185 -223 -220 -264 -34 -41 -81 -98 -104
-127 -24 -30 -56 -60 -73 -69 -16 -9 -30 -19 -30 -23 0 -16 -122 -152 -136
-152 -22 0 -24 -1 -370 -420 -98 -118 -207 -244 -243 -280 -36 -36 -90 -95
-120 -132 -30 -38 -56 -67 -57 -65 -1 1 42 92 96 201 321 644 510 1231 592
1840 19 137 22 209 23 486 0 343 -7 435 -51 680 -176 967 -714 1812 -1520
2387 -534 382 -1175 616 -1843 674 -173 15 -626 6 -776 -15 -392 -56 -716
-147 -1045 -292 -442 -196 -817 -458 -1165 -815 -563 -577 -906 -1278 -1027
-2099 -20 -137 -23 -194 -23 -495 0 -437 25 -643 126 -1055 168 -681 518
-1449 1006 -2202 34 -54 61 -98 59 -98 -3 0 -86 98 -186 218 -290 347 -495
592 -645 769 -77 91 -182 216 -234 277 -51 61 -139 165 -195 231 -57 66 -159
188 -227 271 -116 141 -512 612 -624 742 -27 32 -164 195 -303 363 -139 167
-295 354 -347 414 -51 61 -122 144 -157 186 -34 42 -119 142 -188 223 -69 81
-143 168 -165 195 -22 26 -85 101 -140 166 -114 135 -170 202 -276 331 -40 50
-155 187 -254 304 -99 117 -191 227 -205 244 -13 17 -56 67 -95 111 -64 72
-302 353 -413 488 -23 29 -66 81 -95 116 -83 101 -194 233 -348 414 -79 93
-184 217 -234 277 -49 59 -164 197 -255 305 -91 109 -225 270 -299 359 -74 88
-200 238 -280 331 -80 94 -168 197 -195 230 -53 65 -84 95 -96 95 -5 0 -11 -8
-13 -17z m9318 -2722 c327 -76 584 -222 804 -457 192 -206 321 -456 382 -744
31 -143 33 -417 5 -565 -90 -484 -397 -890 -833 -1105 -429 -211 -929 -209
-1355 5 -422 212 -717 596 -816 1060 -23 105 -26 144 -26 310 0 159 4 207 23
295 132 618 601 1085 1206 1204 126 24 130 24 330 21 148 -3 210 -8 280 -24z"/>
<path d="M6836 8810 l-240 -640 -81 0 c-90 0 -105 -8 -105 -55 0 -17 5 -36 12
-43 9 -9 78 -12 248 -12 217 0 238 2 253 18 22 24 21 55 -1 75 -13 12 -42 17
-114 19 l-96 3 52 140 53 140 193 0 192 0 49 -135 c27 -74 49 -138 49 -142 0
-5 -38 -8 -83 -8 -69 0 -87 -3 -100 -18 -22 -24 -21 -55 1 -75 16 -15 54 -17
329 -17 288 0 311 1 326 18 22 24 21 55 -1 75 -14 13 -38 17 -94 17 l-76 0
-26 73 c-15 39 -118 326 -229 637 l-202 565 -35 3 -35 3 -239 -641z m255 -42
c38 -105 67 -193 65 -195 -2 -2 -69 -2 -149 -1 l-145 3 76 205 c41 112 77 199
80 192 2 -7 35 -98 73 -204z"/>
<path d="M11583 9436 c-184 -42 -353 -184 -444 -371 -59 -122 -74 -190 -73
-335 0 -110 3 -135 28 -205 40 -118 98 -209 195 -305 97 -96 176 -141 288
-165 93 -20 166 -19 257 5 90 23 152 54 227 116 292 239 359 655 155 962 -52
79 -172 197 -237 235 -113 66 -271 91 -396 63z m226 -112 c66 -19 122 -70 150
-133 36 -85 44 -175 38 -476 -5 -310 -17 -391 -64 -460 -59 -86 -219 -128
-345 -91 -69 20 -126 78 -156 159 -42 111 -55 562 -22 767 14 83 52 163 93
192 77 55 204 73 306 42z"/>
<path d="M20305 9436 c-159 -39 -278 -170 -304 -334 -20 -124 18 -231 114
-328 52 -53 70 -64 140 -87 44 -14 132 -36 196 -47 148 -28 213 -59 257 -124
28 -42 32 -56 32 -115 0 -82 -25 -130 -95 -183 -133 -102 -310 -86 -431 38
-40 42 -112 168 -126 222 -5 17 -13 22 -40 22 -19 0 -39 -5 -46 -12 -9 -9 -12
-69 -12 -208 0 -139 3 -199 12 -208 23 -23 61 -13 100 25 l37 36 68 -31 c195
-90 373 -79 518 31 115 88 174 201 182 353 7 118 -17 205 -81 291 -76 104
-157 143 -389 187 -209 41 -277 85 -277 182 0 59 50 130 115 164 42 21 63 25
140 25 73 0 98 -4 130 -22 71 -38 132 -115 169 -215 22 -59 26 -63 58 -66 60
-5 64 8 60 216 l-4 182 -41 0 c-37 0 -45 -5 -65 -35 l-22 -35 -60 30 c-114 57
-225 73 -335 46z"/>
<path d="M4917 9412 c-22 -24 -22 -55 1 -75 14 -13 39 -17 105 -17 l87 0 0
-575 0 -575 -88 0 c-73 0 -92 -3 -105 -18 -22 -24 -21 -55 1 -75 17 -15 55
-17 339 -17 297 0 321 1 336 18 22 24 21 55 -1 75 -14 13 -39 17 -105 17 l-87
0 0 281 0 282 108 -5 c141 -6 186 -26 228 -101 28 -51 29 -56 30 -203 1 -138
3 -155 26 -205 34 -75 78 -122 140 -150 45 -20 68 -23 158 -23 130 1 183 18
188 58 6 47 -19 63 -86 58 -86 -6 -97 11 -106 165 -4 65 -12 138 -18 163 -27
112 -94 195 -204 252 l-62 32 51 17 c86 27 150 61 192 104 62 61 80 106 80
201 0 70 -4 88 -30 139 -39 77 -112 137 -202 167 -66 21 -84 22 -513 26 -428
3 -446 3 -463 -16z m826 -112 c15 -7 38 -30 50 -49 20 -32 22 -49 22 -156 0
-104 -3 -126 -22 -165 -37 -74 -63 -83 -240 -88 l-153 -4 0 242 0 242 158 -4
c107 -3 166 -8 185 -18z"/>
<path d="M7917 9412 c-22 -24 -21 -55 1 -75 14 -13 39 -17 105 -17 l87 0 0
-575 0 -575 -83 0 c-69 0 -87 -3 -100 -18 -22 -24 -21 -55 1 -75 16 -15 49
-17 249 -17 210 0 231 2 246 18 22 24 21 55 -1 75 -15 13 -39 17 -110 17 l-92
0 0 540 c0 297 2 540 4 540 2 0 187 -272 411 -605 372 -555 408 -605 434 -605
15 0 32 5 39 12 9 9 12 165 12 640 l0 628 88 0 c98 0 112 7 112 55 0 17 -5 36
-12 43 -9 9 -78 12 -248 12 -170 0 -239 -3 -248 -12 -7 -7 -12 -26 -12 -43 0
-48 14 -55 117 -55 l93 0 0 -360 c0 -198 -2 -360 -4 -360 -2 0 -129 187 -282
415 l-279 415 -256 0 c-235 0 -257 -1 -272 -18z"/>
<path d="M9497 9412 c-22 -24 -22 -55 1 -75 14 -13 38 -17 100 -17 l82 0 0
-575 0 -575 -83 0 c-69 0 -87 -3 -100 -18 -22 -25 -21 -55 2 -76 18 -16 50
-17 408 -14 357 4 394 6 465 26 111 30 176 64 246 127 159 144 242 353 229
575 -11 179 -78 337 -194 461 -74 78 -142 116 -268 151 -75 20 -107 22 -475
26 -379 3 -396 3 -413 -16z m798 -107 c161 -34 230 -162 242 -450 7 -157 -11
-372 -37 -459 -34 -108 -98 -182 -180 -207 -19 -6 -104 -13 -187 -16 l-153 -6
0 577 0 576 123 0 c69 0 152 -7 192 -15z"/>
<path d="M12532 9418 c-7 -7 -12 -26 -12 -43 0 -47 15 -55 107 -55 l83 0 0
-575 0 -575 -83 0 c-92 0 -107 -8 -107 -55 0 -17 5 -36 12 -43 17 -17 459 -17
476 0 7 7 12 26 12 43 0 48 -14 55 -112 55 l-88 0 1 508 c0 279 3 500 7 492 3
-8 80 -260 172 -560 l166 -545 44 0 45 0 166 545 c91 300 168 552 171 560 4 8
7 -213 7 -492 l1 -508 -88 0 c-98 0 -112 -7 -112 -55 0 -17 5 -36 12 -43 9 -9
94 -12 323 -12 229 0 314 3 323 12 7 7 12 26 12 43 0 47 -15 55 -107 55 l-83
0 0 575 0 575 83 0 c92 0 107 8 107 55 0 17 -5 36 -12 43 -9 9 -79 12 -253 12
l-242 0 -129 -425 c-71 -234 -131 -425 -134 -425 -4 0 -98 304 -241 783 l-20
67 -247 0 c-180 0 -251 -3 -260 -12z"/>
<path d="M14832 9418 c-7 -7 -12 -26 -12 -43 0 -48 14 -55 112 -55 l88 0 0
-575 0 -575 -88 0 c-98 0 -112 -7 -112 -55 0 -17 5 -36 12 -43 15 -15 743 -17
854 -2 217 28 363 168 372 357 5 84 -10 136 -59 203 -35 49 -129 112 -193 130
-25 7 -46 15 -46 19 0 3 25 17 56 30 71 31 146 99 175 158 30 62 31 157 4 232
-42 115 -159 201 -300 221 -105 15 -848 13 -863 -2z m811 -121 c55 -36 62 -59
62 -207 0 -120 -2 -140 -22 -176 -34 -64 -72 -77 -235 -82 l-138 -4 0 247 0
247 153 -4 c125 -2 158 -6 180 -21z m-13 -604 c87 -39 109 -89 110 -243 0
-116 -8 -157 -42 -206 -41 -60 -66 -68 -235 -72 l-153 -4 0 277 0 277 138 -4
c111 -3 146 -8 182 -25z"/>
<path d="M16282 9418 c-7 -7 -12 -26 -12 -43 0 -48 14 -55 117 -55 l93 0 0
-575 0 -575 -93 0 c-103 0 -117 -7 -117 -55 0 -17 5 -36 12 -43 9 -9 99 -12
343 -12 309 0 333 1 348 18 22 24 21 55 -1 75 -15 13 -39 17 -110 17 l-92 0 0
575 0 575 93 0 c78 0 97 3 110 18 22 24 21 55 -1 75 -17 15 -56 17 -348 17
-243 0 -333 -3 -342 -12z"/>
<path d="M17159 9413 c0 -10 -8 -118 -17 -241 -20 -251 -19 -252 49 -252 l35
0 22 92 c42 170 110 273 199 297 21 6 64 11 96 11 l57 0 0 -575 0 -575 -103 0
c-114 0 -127 -6 -127 -55 0 -17 5 -36 12 -43 9 -9 103 -12 363 -12 328 0 353
1 368 18 22 24 21 55 -1 75 -15 14 -40 17 -120 17 l-102 0 0 575 0 575 68 0
c151 -1 226 -81 285 -305 l24 -90 34 -3 c24 -2 40 3 51 15 15 17 15 37 -3 253
-10 129 -19 236 -19 238 0 1 -263 2 -585 2 -550 0 -585 -1 -586 -17z"/>
<path d="M18542 9418 c-7 -7 -12 -26 -12 -43 0 -48 14 -55 117 -55 l93 0 0
-575 0 -575 -93 0 c-103 0 -117 -7 -117 -55 0 -17 5 -36 12 -43 9 -9 158 -12
609 -12 l597 0 7 235 c8 267 8 268 -59 263 l-41 -3 -7 -63 c-15 -136 -68 -237
-145 -275 -73 -37 -139 -47 -313 -47 l-160 0 0 271 0 271 90 -4 c135 -6 173
-44 186 -186 l7 -72 37 0 c70 0 70 2 70 312 0 309 0 308 -73 308 -35 0 -37 -1
-37 -35 0 -69 -21 -137 -55 -173 -32 -36 -33 -36 -129 -40 l-96 -4 0 252 0
252 188 -5 c105 -2 204 -9 225 -16 81 -26 142 -109 168 -230 11 -50 11 -51 49
-51 59 0 64 13 56 143 -3 61 -9 147 -12 190 l-7 77 -571 0 c-432 0 -575 -3
-584 -12z"/>
<path d="M4720 7945 l0 -45 8195 0 8195 0 0 45 0 45 -8195 0 -8195 0 0 -45z"/>
<path d="M10873 7669 c-21 -28 -56 -61 -79 -72 -29 -16 -93 -84 -220 -236 -98
-117 -210 -251 -249 -297 -200 -239 -258 -304 -295 -328 -22 -14 -40 -30 -40
-35 0 -20 -116 -148 -155 -171 -39 -23 -138 -134 -370 -416 -33 -40 -117 -141
-187 -224 -71 -83 -128 -156 -128 -163 0 -37 -26 -92 -69 -146 -29 -36 -53
-79 -60 -105 -7 -29 -28 -64 -56 -96 -35 -40 -45 -58 -45 -86 0 -19 -6 -47
-14 -62 -7 -15 -16 -42 -19 -60 -4 -18 -16 -46 -28 -62 -13 -16 -24 -44 -25
-62 -2 -18 -8 -55 -13 -83 -26 -129 -33 -197 -21 -205 13 -8 10 -140 -4 -172
-6 -14 -3 -18 12 -18 34 0 46 -24 28 -59 -22 -42 -20 -54 15 -74 29 -16 31
-21 27 -61 -5 -43 5 -76 22 -76 9 0 93 -53 150 -95 15 -11 40 -29 56 -40 16
-10 54 -38 85 -62 60 -46 71 -49 131 -31 35 10 42 9 70 -12 30 -22 33 -22 57
-7 66 42 72 43 91 17 l18 -24 35 27 c43 33 60 34 79 6 l14 -22 40 20 c21 11
59 30 84 41 25 11 70 31 100 45 30 13 100 42 155 63 61 23 114 50 135 70 19
17 45 35 56 38 12 4 46 28 77 54 30 26 73 57 94 70 21 13 49 39 62 58 13 19
35 37 50 40 54 11 72 25 125 97 55 74 92 115 157 173 19 16 57 59 84 94 28 35
73 90 100 123 28 32 64 82 81 110 33 57 146 202 294 378 208 247 360 442 360
461 0 30 17 57 90 138 37 41 74 89 83 107 23 43 157 220 226 297 68 76 381
462 398 490 7 12 12 31 13 43 0 25 116 168 136 168 17 0 99 -98 120 -145 9
-19 33 -53 54 -75 22 -23 43 -58 49 -81 11 -41 24 -58 236 -309 145 -171 171
-204 204 -260 17 -28 57 -82 89 -121 34 -39 63 -85 67 -104 7 -33 47 -84 243
-318 134 -161 192 -234 209 -267 16 -30 81 -114 115 -148 10 -10 20 -30 23
-45 10 -49 12 -51 355 -462 43 -52 89 -112 102 -133 42 -71 186 -247 219 -270
18 -12 48 -42 66 -67 46 -64 70 -87 101 -95 15 -4 57 -35 94 -71 36 -35 72
-64 80 -64 8 0 25 -11 38 -25 13 -14 33 -25 45 -25 19 0 91 -40 155 -87 14
-10 36 -21 50 -25 14 -3 48 -15 75 -25 35 -14 71 -19 120 -18 39 2 79 -2 90
-8 24 -13 173 -19 180 -7 3 4 21 4 41 -1 28 -8 41 -7 60 6 13 8 24 20 24 25 0
5 11 17 24 25 18 12 29 13 52 5 42 -16 62 -7 136 62 73 70 122 112 216 190 62
51 62 51 62 104 0 52 2 55 40 80 36 24 40 31 40 68 0 22 7 50 15 61 10 12 13
30 9 52 -4 21 -1 39 6 49 7 8 12 35 12 59 -1 24 3 47 9 50 6 4 8 28 4 63 -24
232 -39 333 -57 375 -10 27 -17 55 -14 62 2 7 -3 30 -13 51 -21 46 -56 132
-80 194 -10 25 -34 67 -54 92 -42 56 -54 87 -37 98 13 8 -7 34 -195 256 -60
71 -153 181 -205 244 -152 182 -171 201 -191 195 -12 -4 -25 2 -38 17 -10 13
-36 43 -57 68 -22 25 -57 68 -79 95 -22 27 -53 61 -68 75 -36 32 -203 221
-282 319 -33 41 -96 116 -140 166 -44 51 -123 145 -175 210 -69 85 -105 121
-132 132 -20 8 -45 27 -54 41 -10 15 -42 55 -73 90 l-55 62 -1853 0 -1853 0
-37 -51z"/>
</g>
</svg>
